<svg id="Layer_1" data-name="Layer 1" xmlns="http://www.w3.org/2000/svg" viewBox="0 0 264.96429 762"><path d="M990.96429,782a6.99541,6.99541,0,0,0-6.92047,6H866.21429V582.61066a1.48357,1.48357,0,0,0,0-2.22132V412H982.258a7.01228,7.01228,0,1,0-.21418-3H866.21429V162.88232a7.0047,7.0047,0,1,0-3-.11175V298H746.7063a7.0123,7.0123,0,1,0,.21417,3H863.21429V580H751.88477a6.98582,6.98582,0,1,0-.21418,3h111.5437V897.22943a6.99566,6.99566,0,1,0,3-.11175V791H984.258a6.99918,6.99918,0,1,0,6.70629-9Z" transform="translate(-733 -149)" fill="#e34aab"/></svg>